<?xml version="1.0" encoding="utf-8"?>
<!-- Generator: Adobe Illustrator 21.0.0, SVG Export Plug-In . SVG Version: 6.00 Build 0)  -->
<svg version="1.0" id="Layer_1" xmlns="http://www.w3.org/2000/svg" xmlns:xlink="http://www.w3.org/1999/xlink" x="0px" y="0px"
	 viewBox="0 0 128 128" enable-background="new 0 0 128 128" xml:space="preserve">
<g>
	<g>
		<path fill="#EF1C25" d="M48.8,56.5H34.6c0-9,7.3-16.3,16.3-16.3H93v0c0,9-7.3,16.3-16.3,16.3H48.8z"/>
		<path fill="#3F3F3F" d="M58.7,32.2H44.5c0-9,7.3-16.3,16.3-16.3H103v0c0,9-7.3,16.3-16.3,16.3H58.7z"/>
		<path fill="#3F3F3F" d="M39.2,79.4H25c0-9,7.3-16.3,16.3-16.3h42.1v0c0,9-7.3,16.3-16.3,16.3H39.2z"/>
	</g>
	<g>
		<g>
			<text transform="matrix(1 0 0 1 28.0149 101.6204)" fill="#3F3F3F" font-family="'ProductSans-Bold'" font-size="17.6054px">GUSRIX</text>
		</g>
		<g>
			
				<text transform="matrix(1 0 0 1 33.6887 110.0477)" fill="#EF1C25" font-family="'Montserrat-SemiBoldItalic'" font-size="7.7835px" letter-spacing="2">EXPRESS</text>
		</g>
	</g>
</g>
</svg>
