<svg class="svg-icon" style="width: 1em; height: 1em;vertical-align: middle;fill: currentColor;overflow: hidden;" viewBox="0 0 1024 1024" version="1.1" xmlns="http://www.w3.org/2000/svg"><path d="M963.085128 99.774359C963.085128 45.161026 761.435897 0 512.525128 0S60.914872 45.161026 60.914872 99.774359c0 5.251282 2.100513 9.452308 5.251282 14.70359-2.100513-1.050256-3.150769-1.050256-5.251282-2.100513v101.874872C60.914872 235.257436 156.488205 346.584615 507.273846 346.584615s455.811282-116.578462 455.811282-132.332307V107.126154c-1.050256 0-1.050256 0-2.100513 1.050256 2.100513-3.150769 2.100513-5.251282 2.100513-8.402051zM506.22359 199.548718h-5.251282 5.251282zM60.914872 789.792821v101.874871c0 21.005128 95.573333 132.332308 446.358974 132.332308s455.811282-116.578462 455.811282-132.332308V784.541538c-124.980513 57.764103-283.569231 92.422564-456.861538 92.422565-168.041026 0-322.428718-32.557949-445.308718-87.171282z"  /><path d="M60.914872 563.987692v101.874872C60.914872 685.817436 156.488205 798.194872 507.273846 798.194872s455.811282-116.578462 455.811282-132.332308V558.73641C838.104615 616.500513 679.515897 651.158974 506.22359 651.158974c-168.041026 0-322.428718-32.557949-445.308718-87.171282z"  /><path d="M60.914872 338.182564v101.874872c0 21.005128 95.573333 132.332308 446.358974 132.332308s455.811282-116.578462 455.811282-132.332308V332.931282c-124.980513 57.764103-283.569231 92.422564-456.861538 92.422564-168.041026 0-322.428718-32.557949-445.308718-87.171282z"  /></svg>