<?xml version="1.0" encoding="utf-8"?>
<!-- Svg Vector Icons : http://www.onlinewebfonts.com/icon -->
<!DOCTYPE svg PUBLIC "-//W3C//DTD SVG 1.1//EN" "http://www.w3.org/Graphics/SVG/1.1/DTD/svg11.dtd">
<svg version="1.1" xmlns="http://www.w3.org/2000/svg" xmlns:xlink="http://www.w3.org/1999/xlink" x="0px" y="0px" viewBox="0 0 1000 1000" enable-background="new 0 0 1000 1000" xml:space="preserve">
<metadata> Svg Vector Icons : http://www.onlinewebfonts.com/icon </metadata>
<g><path d="M255,908.3h490v-245H255V908.3L255,908.3z M826.6,908.3h81.7V336.7c0-5.9-2.1-14.1-6.4-24.6c-4.2-10.5-8.5-17.8-12.7-22L709.9,110.8c-4.2-4.2-11.5-8.5-21.7-12.7c-10.2-4.2-18.5-6.4-24.9-6.4v265.4c0,17-6,31.4-17.9,43.4S619,418.3,602,418.3H234.6c-17,0-31.4-6-43.4-17.9c-11.9-11.9-17.9-26.4-17.9-43.4V91.7H91.7v816.6h81.7V642.9c0-17,6-31.4,17.9-43.4c11.9-11.9,26.4-17.9,43.4-17.9h530.8c17,0,31.4,6,43.4,17.9c11.9,11.9,17.9,26.4,17.9,43.4V908.3z M581.6,316.3V112.1c0-5.6-2-10.3-6-14.4c-4-4-8.8-6-14.4-6H438.7c-5.6,0-10.3,2-14.4,6c-4,4-6,8.8-6,14.4v204.1c0,5.6,2,10.3,6,14.4c4,4,8.8,6,14.4,6h122.5c5.6,0,10.3-2,14.4-6C579.6,326.6,581.6,321.8,581.6,316.3z M989.9,336.7v592c0,17-6,31.4-17.9,43.4C960.1,984,945.7,990,928.7,990H71.2c-17,0-31.4-6-43.4-17.9C16,960.2,10,945.7,10,928.7V71.3c0-17,6-31.4,17.9-43.4C39.8,16,54.3,10,71.2,10h592c17,0,35.7,4.2,56.2,12.7c20.5,8.5,36.6,18.7,48.5,30.6L946.6,232c11.9,11.9,22.1,28.1,30.6,48.5C985.8,300.9,990,319.6,989.9,336.7L989.9,336.7z"/></g>
</svg>