<?xml version="1.0" encoding="utf-8"?>
<!-- Generator: Adobe Illustrator 21.0.0, SVG Export Plug-In . SVG Version: 6.00 Build 0)  -->
<svg version="1.0" id="Layer_1" xmlns:svgjs="http://svgjs.com/svgjs"
	 xmlns="http://www.w3.org/2000/svg" xmlns:xlink="http://www.w3.org/1999/xlink" x="0px" y="0px" viewBox="0 0 24 24"
	 style="enable-background:new 0 0 24 24;" xml:space="preserve">
<g>
	<g>
		<path d="M19.3,8.2l-5-5C14.1,3.1,13.9,3,13.7,3H5.3C4.9,3,4.5,3.4,4.5,3.8v16.3c0,0.5,0.4,0.8,0.8,0.8h13.3c0.5,0,0.8-0.4,0.8-0.8
			V8.8C19.5,8.6,19.4,8.4,19.3,8.2L19.3,8.2z M14.5,5.8L16.7,8h-2.2V5.8z M6.2,19.3V4.7h6.7v4.2c0,0.5,0.4,0.8,0.8,0.8h4.2v9.7H6.2z
			"/>
		<path d="M15.3,11.3H8.7c-0.5,0-0.8,0.4-0.8,0.8c0,0.5,0.4,0.8,0.8,0.8h6.7c0.5,0,0.8-0.4,0.8-0.8C16.2,11.7,15.8,11.3,15.3,11.3z"
			/>
		<path d="M15.3,14.7H8.7c-0.5,0-0.8,0.4-0.8,0.8s0.4,0.8,0.8,0.8h6.7c0.5,0,0.8-0.4,0.8-0.8S15.8,14.7,15.3,14.7z"/>
	</g>
</g>
</svg>
