<svg
    xmlns="http://www.w3.org/2000/svg"
    viewBox="0 0 30 30"
    id="vector">
    <path
        id="path"
        d="M 7 4 C 6.744 4 6.488 4.097 6.293 4.293 L 4.293 6.293 C 3.902 6.684 3.902 7.317 4.293 7.707 L 11.586 15 L 4.293 22.293 C 3.902 22.684 3.902 23.317 4.293 23.707 L 6.293 25.707 C 6.684 26.098 7.317 26.098 7.707 25.707 L 15 18.414 L 22.293 25.707 C 22.683 26.098 23.317 26.098 23.707 25.707 L 25.707 23.707 C 26.098 23.316 26.098 22.683 25.707 22.293 L 18.414 15 L 25.707 7.707 C 26.098 7.317 26.098 6.683 25.707 6.293 L 23.707 4.293 C 23.316 3.902 22.683 3.902 22.293 4.293 L 15 11.586 L 7.707 4.293 C 7.512 4.097 7.256 4 7 4 Z"
        fill="#000000"
        stroke-width="1"/>
</svg>
